<svg xmlns="http://www.w3.org/2000/svg" viewBox="0 0 404.62 299.68"><defs><style>.cls-1{fill:#78c6ca;}.cls-2{fill:#fff;}</style></defs><title>Asset 24</title><g id="Layer_2" data-name="Layer 2"><g id="Layer_1-2" data-name="Layer 1"><path class="cls-1" d="M189,.7a113.77,113.77,0,0,1,49.79,220.67,113.81,113.81,0,0,1-146-75.48,113.79,113.79,0,0,1,44-125.48A113.25,113.25,0,0,1,189,.7Z"/><path class="cls-2" d="M169,80.37h13.73c0,14.24,0,28.49,0,42.74,0,4.45.08,8.6,2,12.72a16.56,16.56,0,0,0,11.81,9.24c6.36,1.34,13.93.48,18.89-4.09,4.2-3.9,5.59-9.28,5.61-14.86q-.06-22.87,0-45.75l14,0c.05,14.26,0,28.51,0,42.76-.09,8-.65,15.47-5.24,22.26-4.82,7.2-12.85,10.9-21.25,11.93-7,.76-14.59.5-21.28-1.91A26.33,26.33,0,0,1,172.69,143c-3.14-5.92-3.77-12.24-3.7-18.85C169.07,109.54,169,95,169,80.37Z"/><path class="cls-1" d="M0,265.11l6.24,0c0,5.41,0,10.82,0,16.23,0,2.67,0,5.72.94,8.25,2.29,5.92,12.37,6.16,15.09.48,1.11-2.27,1-5.26,1.07-7.73,0-5.75-.08-11.49,0-17.24h6.23c0,6.08,0,12.17.05,18.25-.06,3.83-.05,7.46-2.24,10.77a12.85,12.85,0,0,1-9.76,5.4c-5,.51-10.58-.16-14.15-4-2.9-3.15-3.23-7-3.39-11.1C0,278,.08,271.53,0,265.11Z"/><path class="cls-1" d="M234.7,265.15a3.5,3.5,0,0,1,5.31,3,3.38,3.38,0,0,1-4.46,3.26C232.68,270.76,232.16,266.68,234.7,265.15Z"/><path class="cls-1" d="M315.85,265.4a3.5,3.5,0,0,1,5.68,2.72,3.43,3.43,0,0,1-4.92,3.07C314.27,270.33,314,266.87,315.85,265.4Z"/><path class="cls-1" d="M300.05,267.6c1.83,0,3.65,0,5.47,0,0,2.16,0,4.32,0,6.48,1.66,0,3.33,0,5,0,0,1.65,0,3.3,0,5l-5,0a92.25,92.25,0,0,0,.52,15.32c1.45-.13,2.91-.21,4.36-.25.4,1.38.79,2.76,1.21,4.13-2.87.61-5.94,1.76-8.78.41-1.87-.86-2.52-2.64-2.71-4.58-.4-5-.06-10-.11-15l-4-.16c0-1.62,0-3.25,0-4.87l4-.12C300.07,271.91,300,269.76,300.05,267.6Z"/><path class="cls-1" d="M51.53,274.06c2.44.72,4.14,2.34,6.15,3.79l-3.62,3.26c-2.86-1.58-5-3.41-8.5-2.1-6.43,2.41-6.32,12.75,0,15.11,3.44,1.29,5.69-.77,8.55-2.26l3.43,3.5c-2.23,1.58-4.24,3.41-7,3.86a14,14,0,0,1-10.17-1.93c-6.59-4.4-7.15-15.38-1.24-20.55A13.6,13.6,0,0,1,51.53,274.06Z"/><path class="cls-1" d="M67.93,274.56c4.48-1.77,10.35-1.19,13.92,2.24,5.88,5.5,5.17,16.57-1.83,20.85-4.85,2.89-12.18,2.36-16.09-1.94C58.13,289.57,59.73,277.82,67.93,274.56Z"/><path class="cls-1" d="M91.29,274.12c1.83,0,3.66,0,5.48,0,0,.91-.08,1.81-.11,2.72,2.89-1.71,5.33-3.59,8.92-3.21,2.29.13,4.18,2,6,3.36,2.91-1.8,5.36-3.81,9-3.35a6.07,6.07,0,0,1,5.9,5.47c.72,6.52.15,13.21.29,19.77H121c-.08-5.27.19-10.55,0-15.81-.15-1.31-.19-3.35-1.62-4-2.61-1.54-5.39.75-7.66,2,.12,5.93.06,11.87,0,17.81H106c-.1-5.27.16-10.54,0-15.8-.18-1.5-.07-3.16-1.61-4-2.73-1.6-5.32.83-7.65,2.06.09,5.9,0,11.81,0,17.71H91.3Q91.24,286.5,91.29,274.12Z"/><path class="cls-1" d="M133.53,274.12c1.82,0,3.65,0,5.47,0l-.06,2.61c2.69-1.43,5.43-3.37,8.63-3.1,2.69.08,4.31,1.86,6.31,3.38,3.62-2.47,7-4.52,11.51-2.77,2.94,1.24,3.46,4,3.62,6.87.2,5.93,0,11.87,0,17.8h-5.49c-.17-5.81.46-11.79-.31-17.55-.71-4.88-9.29-2.52-9.07,1.66-.38,5.27,0,10.59-.1,15.87-1.83,0-3.67,0-5.5,0-.07-4.94.12-9.88,0-14.82-.18-2.09,0-4-2-5.23-2.6-.85-6.25.52-7.26,3.13-.65,5.56-.07,11.28-.23,16.88-1.83,0-3.66,0-5.49,0C133.51,290.64,133.53,282.38,133.53,274.12Z"/><path class="cls-1" d="M176,274.1c1.84,0,3.67,0,5.5,0,.14,5.64-.34,11.36.18,17a3.45,3.45,0,0,0,2.81,3.24c3,.77,5.24-1.09,7.78-2.27-.06-6,0-12,0-17.95l5.75,0c0,8.24,0,16.48,0,24.72H192.5c-.1-.81-.19-1.62-.29-2.43-2.85,1.57-5.28,3.19-8.71,3-3.42,0-6.7-1.66-7.25-5.29C175.64,287.52,176.22,280.76,176,274.1Z"/><path class="cls-1" d="M204.78,274.13l5.44,0,.05,2.54c3.69-1.95,6.92-3.85,11.29-2.76,3.19.71,4.89,3,5.1,6.18.39,6.25,0,12.55.1,18.81h-5.47c-.11-5.25.21-10.53-.09-15.77-.16-1.91-.61-3.61-2.67-4.23-3.33-1-8.82.94-8.23,5.2-.2,4.93.06,9.88,0,14.82l-5.49,0Q204.76,286.5,204.78,274.13Z"/><path class="cls-1" d="M233.53,274.12H239q0,12.38,0,24.74c-1.83,0-3.66,0-5.49,0Z"/><path class="cls-1" d="M260.56,273.91c2.63.57,4.56,2.39,6.66,3.95q-1.83,1.62-3.63,3.25c-3-1.66-5.36-3.51-8.93-1.94-6,2.79-5.66,13.07.87,15,3.33,1.07,5.37-.81,8-2.33l3.63,3.38c-2,1.48-4.16,3.4-6.68,3.91-3.73.67-7.84.23-10.93-2.11-6.31-4.62-6.59-15.5-.64-20.51C252,273.8,256.66,273.08,260.56,273.91Z"/><path class="cls-1" d="M287.14,274.55a7.24,7.24,0,0,1,4.74,6.52c.45,6,0,12.07.12,18.09-2.28-.19-4.36-.34-6.33-1.62-4,1.74-7.95,3-12,.47-5-3.09-4.74-11.56.74-14,4.6-2,8.35-.32,12.57,1.57-.76-2.62-.24-5.47-3.21-6.67-4-1.66-6.91.54-10.31,2.28-.8-1.2-1.59-2.42-2.38-3.63C275.76,273.89,281.4,272.4,287.14,274.55Z"/><path class="cls-1" d="M315.28,274.12h5.49q0,12.38,0,24.75h-5.47Q315.26,286.5,315.28,274.12Z"/><path class="cls-1" d="M333.88,274.49c4.32-1.63,9.73-1.1,13.31,1.95,6.2,5.34,5.75,16.62-1.26,21.08-5,3.09-12.82,2.57-16.65-2.17C323.89,289,325.62,277.56,333.88,274.49Z"/><path class="cls-1" d="M357.06,274.14l5.47,0v2.74c3.22-2,6.09-3.81,10.09-3.15,3.59.49,5.81,2.51,6.24,6.16.57,6.28.05,12.69.22,19-1.83,0-3.67,0-5.5,0-.14-5.52.37-11.18-.31-16.67a3.88,3.88,0,0,0-3.64-3.61c-2.64-.4-4.83,1.42-7.07,2.52,0,5.92,0,11.84,0,17.77-1.83,0-3.65,0-5.48,0C357.05,290.61,357.07,282.38,357.06,274.14Z"/><path class="cls-1" d="M404.11,276.81c-.81,1.32-1.62,2.65-2.41,4-2.63-1.34-5.08-3-8.17-2.68-2.19,0-3.31,2-4.34,3.62,4.07,1.58,8.59,2.26,12.45,4.25,4.32,2.43,3.76,9.55-.42,11.85-5.91,3.11-12.31,1.51-17.68-1.89.81-1.38,1.63-2.75,2.43-4.14,3.56,1.82,6.91,4,11.1,2.77,1.64-.6,2.07-1.57,2.33-3.21-3.3-3.29-9.93-2.41-13.32-5.81a6.93,6.93,0,0,1,2.26-10.61C393.87,272.22,399.13,273.87,404.11,276.81Z"/><path class="cls-2" d="M69.85,279.43a6.64,6.64,0,0,1,7.64.76,9.17,9.17,0,0,1,.39,12.28A6.55,6.55,0,0,1,70,293.68C65.05,290.83,65,282.33,69.85,279.43Z"/><path class="cls-2" d="M335.77,279.34a6.67,6.67,0,0,1,7.58,1,9.1,9.1,0,0,1-.13,12.51,6.55,6.55,0,0,1-9.54-.86C330.94,288.19,331.42,281.75,335.77,279.34Z"/><path class="cls-2" d="M286.54,288.94c0,1.48.09,3,.12,4.45-3,1.46-5.47,3.26-8.82,1.42a3.89,3.89,0,0,1-.37-6.73C280.65,285.93,283.47,287.71,286.54,288.94Z"/></g></g></svg>